<?xml version="1.0" encoding="utf-8"?>
<!-- Svg Vector Icons : http://www.onlinewebfonts.com/icon -->
<!DOCTYPE svg PUBLIC "-//W3C//DTD SVG 1.1//EN" "http://www.w3.org/Graphics/SVG/1.1/DTD/svg11.dtd">
<svg version="1.1" xmlns="http://www.w3.org/2000/svg" xmlns:xlink="http://www.w3.org/1999/xlink" x="0px" y="0px" viewBox="0 0 1000 1000" enable-background="new 0 0 1000 1000" xml:space="preserve">
<metadata> Svg Vector Icons : http://www.onlinewebfonts.com/icon </metadata>
<g><path fill="#1B389D" d="M951.5,309.3c-24.7-58.3-60-110.8-105-155.8c-45-45-97.4-80.3-155.8-105C630.3,23,566.1,10,500,10S369.7,23,309.3,48.5c-58.3,24.7-110.8,60-155.8,105c-45,45-80.3,97.4-105,155.8C23,369.7,10,433.9,10,500s13,130.3,38.5,190.7c24.7,58.3,60,110.8,105,155.8c45,45,97.4,80.3,155.8,105C369.7,977,433.9,990,500,990s130.3-13,190.7-38.5c58.3-24.7,110.8-60,155.8-105c45-45,80.3-97.4,105-155.8C977,630.3,990,566.1,990,500S977,369.7,951.5,309.3z M886.1,663.1c-21.1,49.9-51.3,94.7-89.8,133.2c-38.5,38.5-83.3,68.7-133.2,89.8C611.4,907.9,556.6,919,500,919c-56.6,0-111.4-11.1-163.1-32.9c-49.9-21.1-94.7-51.3-133.2-89.8c-38.5-38.5-68.7-83.3-89.8-133.2C92.1,611.4,81,556.6,81,500c0-56.6,11.1-111.4,32.9-163.1c21.1-49.9,51.3-94.7,89.8-133.2c38.5-38.5,83.3-68.7,133.2-89.8C388.6,92.1,443.4,81,500,81c56.6,0,111.4,11.1,163.1,32.9c49.9,21.1,94.7,51.3,133.2,89.8c38.5,38.5,68.7,83.3,89.8,133.2C907.9,388.6,919,443.4,919,500C919,556.6,907.9,611.4,886.1,663.1z"/><path fill="#1B389D" d="M395.1,290.2c-19.3,0-35,15.7-35,35v349.6c0,19.3,15.7,35,35,35c19.3,0,35-15.7,35-35V325.2C430.1,305.9,414.4,290.2,395.1,290.2z"/><path fill="#1B389D" d="M604.9,290.2c-19.3,0-35,15.7-35,35v349.6c0,19.3,15.7,35,35,35c19.3,0,35-15.7,35-35V325.2C639.8,305.9,624.2,290.2,604.9,290.2z"/></g>
</svg>